<svg xmlns="http://www.w3.org/2000/svg" viewBox="0 0 279.97 36.42"><defs><style>.cls-1{fill:#fff;}.cls-2{fill:none;}</style></defs><title>smwhd-logo</title><g id="Layer_2" data-name="Layer 2"><g id="Layer_1-2" data-name="Layer 1"><path class="cls-1" d="M47.42,15.26a5.33,5.33,0,0,1-1.67-.76l.1.86h-1l-.12-4.26h.78a3.57,3.57,0,0,0,1.18,2.65,4,4,0,0,0,2.74.93,3.16,3.16,0,0,0,2-.67,2.24,2.24,0,0,0,.83-1.83,2.37,2.37,0,0,0-.47-1.47,4.06,4.06,0,0,0-1.16-1c-.46-.27-1.09-.59-1.87-.95s-1.6-.8-2.13-1.12a4.41,4.41,0,0,1-1.35-1.27,3.32,3.32,0,0,1-.56-1.95,3.73,3.73,0,0,1,.37-1.6,3.13,3.13,0,0,1,1.28-1.36A4.57,4.57,0,0,1,48.79.88a7.55,7.55,0,0,1,1.81.23,4.75,4.75,0,0,1,1.67.79L52.19,1h1v4.4h-.72a4.57,4.57,0,0,0-1-2.67,3.14,3.14,0,0,0-2.55-1.09,2.54,2.54,0,0,0-1.88.67A2.22,2.22,0,0,0,46.37,4a2.15,2.15,0,0,0,.46,1.38,3.71,3.71,0,0,0,1.12,1c.44.25,1.06.57,1.86.94A23.89,23.89,0,0,1,52,8.42a4.75,4.75,0,0,1,1.41,1.31,3.37,3.37,0,0,1,.58,2,3.63,3.63,0,0,1-.55,2A3.7,3.7,0,0,1,51.83,15a6.09,6.09,0,0,1-2.52.48A7.23,7.23,0,0,1,47.42,15.26Z"/><path class="cls-1" d="M56.12,14.86a2.13,2.13,0,0,1-.77-1.72,2.49,2.49,0,0,1,.93-2A6,6,0,0,1,58.62,10a10.14,10.14,0,0,1,2.83-.37V8.38a4.5,4.5,0,0,0-.38-2,1.66,1.66,0,0,0-1.62-.73,2.79,2.79,0,0,0-1.18.26,1.6,1.6,0,0,0-.82.78,1.09,1.09,0,0,1,.26.76.93.93,0,0,1-.22.57.78.78,0,0,1-.64.27A.84.84,0,0,1,56.19,8,1,1,0,0,1,56,7.28a1.75,1.75,0,0,1,.51-1.21,3.37,3.37,0,0,1,1.42-.87,6.13,6.13,0,0,1,2-.32,3.19,3.19,0,0,1,2.48.89,4.09,4.09,0,0,1,.78,2.81l0,4.5a13.17,13.17,0,0,1-.08,1.36l1.42-.08v.84H61.63c0-.2-.09-.58-.14-1.14a4.42,4.42,0,0,1-3.14,1.46A3.32,3.32,0,0,1,56.12,14.86Zm4.07-.77a5,5,0,0,0,1.26-.89c0-.2,0-.54,0-1l0-1.88a7.25,7.25,0,0,0-2.92.67,2,2,0,0,0-1.28,1.87A1.45,1.45,0,0,0,57.69,14a1.57,1.57,0,0,0,1.12.4A3.31,3.31,0,0,0,60.19,14.09Z"/><path class="cls-1" d="M65.67,14.6a1.07,1.07,0,0,0,.83-.29,1.42,1.42,0,0,0,.3-.74c0-.3,0-.77,0-1.41V7.6a10.38,10.38,0,0,1,.08-1.3l-1.42.08V5.54A7.36,7.36,0,0,0,67.2,5.4,1.89,1.89,0,0,0,68,5h.58v8.08a9,9,0,0,1-.08,1.36l1.26-.06v.82H65.67ZM66.91,2.67a1.15,1.15,0,0,1-.32-.83A1.2,1.2,0,0,1,66.92,1a1,1,0,0,1,.75-.36,1,1,0,0,1,.77.35,1.27,1.27,0,0,1,.31.85,1.16,1.16,0,0,1-.33.83,1,1,0,0,1-.77.35A1,1,0,0,1,66.91,2.67Z"/><path class="cls-1" d="M71.09,14.6a1.07,1.07,0,0,0,.83-.29,1.3,1.3,0,0,0,.29-.72c0-.29,0-.76.06-1.43l0-4.56a7.38,7.38,0,0,1,.08-1.3L71,6.38V5.54a6.57,6.57,0,0,0,1.62-.13A1.84,1.84,0,0,0,73.31,5h.58c0,.25,0,.66.08,1.22a5.72,5.72,0,0,1,1.55-1,4.29,4.29,0,0,1,1.71-.37A2.94,2.94,0,0,1,79.77,6a5.8,5.8,0,0,1,.8,3.39v3.72a9,9,0,0,1-.08,1.36l1.26-.06v.82H77.67v-.6a1.07,1.07,0,0,0,.83-.29,1.42,1.42,0,0,0,.3-.74c0-.3,0-.77,0-1.41V9.36a5.16,5.16,0,0,0-.56-2.59,1.86,1.86,0,0,0-1.7-.87,3.12,3.12,0,0,0-1.43.36A3.31,3.31,0,0,0,74,7.2c0,.15,0,.41,0,.78l0,5.1a9,9,0,0,1-.08,1.36l1.26-.06v.82H71.09Z"/><path class="cls-1" d="M83.89,11.84l0-5.8-1.54,0V5.2A2.06,2.06,0,0,0,84,4.33,6,6,0,0,0,85,2.4h.68V5.2h3.36V6L85.69,6c0,2,0,3.45,0,4.24s0,1.23,0,1.32A4.93,4.93,0,0,0,86,13.69a1.2,1.2,0,0,0,1.18.69,2,2,0,0,0,1-.32,3.1,3.1,0,0,0,.89-.88l.54.44a4.42,4.42,0,0,1-1.54,1.53,3.34,3.34,0,0,1-1.48.37Q83.87,15.52,83.89,11.84Z"/><path class="cls-1" d="M102.09,12.9c-1-2.25-1.8-4-2.36-5.33S98.62,4.9,98.09,3.46l0,.88c-.12,3.91-.2,6.69-.22,8.36a4.17,4.17,0,0,1,0,.44,12.38,12.38,0,0,1-.06,1.26l1.5-.08v.88H95.45v-.66a1.17,1.17,0,0,0,1.09-.47,3.38,3.38,0,0,0,.29-1.37L97.27,2l-1.44.06V1.2h3.06l2.72,6.28q1.47,3.48,2.28,5.28h0l1-2.58c.5-1.28,1.08-2.69,1.74-4.22.76-1.79,1.41-3.37,2-4.76h3v.66a1.26,1.26,0,0,0-1.06.39,2.18,2.18,0,0,0-.34,1.39l0,.4.52,9.1c0,.31,0,.72,0,1.24l1.46-.06v.88h-4.48v-.66a1.2,1.2,0,0,0,1.06-.45,2.61,2.61,0,0,0,.28-1.35c0-.25,0-.45,0-.58l-.52-8.52c0,.07-.07.15-.11.26a3.77,3.77,0,0,0-.15.38l-4.5,11.12h-.6Z"/><path class="cls-1" d="M114.18,14.86a2.13,2.13,0,0,1-.77-1.72,2.49,2.49,0,0,1,.93-2A6,6,0,0,1,116.68,10a10.14,10.14,0,0,1,2.83-.37V8.38a4.5,4.5,0,0,0-.38-2,1.66,1.66,0,0,0-1.62-.73,2.79,2.79,0,0,0-1.18.26,1.6,1.6,0,0,0-.82.78,1.09,1.09,0,0,1,.26.76.93.93,0,0,1-.22.57.78.78,0,0,1-.64.27.84.84,0,0,1-.66-.27,1,1,0,0,1-.24-.71,1.75,1.75,0,0,1,.51-1.21,3.37,3.37,0,0,1,1.42-.87,6.13,6.13,0,0,1,2-.32,3.19,3.19,0,0,1,2.48.89,4.09,4.09,0,0,1,.78,2.81l0,4.5a13.17,13.17,0,0,1-.08,1.36l1.42-.08v.84h-2.86c0-.2-.09-.58-.14-1.14a4.42,4.42,0,0,1-3.14,1.46A3.32,3.32,0,0,1,114.18,14.86Zm4.07-.77a5,5,0,0,0,1.26-.89c0-.2,0-.54,0-1l0-1.88a7.25,7.25,0,0,0-2.92.67,2,2,0,0,0-1.28,1.87,1.45,1.45,0,0,0,.44,1.14,1.57,1.57,0,0,0,1.12.4A3.31,3.31,0,0,0,118.25,14.09Z"/><path class="cls-1" d="M123.73,14.6a1.07,1.07,0,0,0,.83-.29,1.42,1.42,0,0,0,.3-.74c0-.3,0-.77,0-1.41V7.6A7.38,7.38,0,0,1,125,6.3l-1.42.06V5.54h.62a3.3,3.3,0,0,0,1.1-.13,2,2,0,0,0,.64-.41h.58c0,.52.08,1.18.1,2A4.83,4.83,0,0,1,128,5.52,3.33,3.33,0,0,1,130,4.88a1.58,1.58,0,0,1,1,.32,1.15,1.15,0,0,1,.4.94,1.08,1.08,0,0,1-.25.64.87.87,0,0,1-.71.32.88.88,0,0,1-.72-.33,1,1,0,0,1-.22-.79,2.39,2.39,0,0,0-1.53.58,4.88,4.88,0,0,0-1.31,1.6l0,4.92a9,9,0,0,1-.08,1.36l1.26-.06v.82h-4.1Z"/><path class="cls-1" d="M133,20.3a1.06,1.06,0,0,1-.42-.9,1,1,0,0,1,.25-.67.81.81,0,0,1,.65-.29.67.67,0,0,1,.59.28,1.08,1.08,0,0,1,.19.58,1.91,1.91,0,0,1,0,.28.39.39,0,0,0,.22,0,.92.92,0,0,0,.53-.2,1.92,1.92,0,0,0,.49-.58,24.69,24.69,0,0,0,1.4-3.42l-3.12-6.68A14.82,14.82,0,0,1,132.69,6l-1,0V5.2h4.14v.6h-.08c-.63,0-.94.31-.94.8a4.41,4.41,0,0,0,.48,1.56l2.34,5c.4-1.13,1-2.81,1.72-5a7.19,7.19,0,0,1,1-2.22L139,6V5.2h3.14v.6a2,2,0,0,0-1,.83,8.94,8.94,0,0,0-.81,1.77l-2.5,7c-.48,1.35-.88,2.36-1.19,3A5.55,5.55,0,0,1,135.52,20a2,2,0,0,1-1.45.58A1.75,1.75,0,0,1,133,20.3Z"/><path class="cls-1" d="M143.35,8.1h7.1V9.42l-7.1.08Z"/><path class="cls-1" d="M154.9,14.87a4.72,4.72,0,0,1-1.82-1.81,5.11,5.11,0,0,1-.67-2.62,6.05,6.05,0,0,1,.66-2.83,5.08,5.08,0,0,1,1.81-2,4.6,4.6,0,0,1,2.55-.73,5,5,0,0,1,4.37,2.5,5.11,5.11,0,0,1,.67,2.58,6,6,0,0,1-.67,2.8,5.32,5.32,0,0,1-1.82,2,4.66,4.66,0,0,1-2.55.74A5.07,5.07,0,0,1,154.9,14.87Zm4.84-1.35a5.89,5.89,0,0,0,.69-3,7.4,7.4,0,0,0-.75-3.46,2.41,2.41,0,0,0-2.25-1.44,2.45,2.45,0,0,0-2.23,1.22,5.61,5.61,0,0,0-.75,3,7.72,7.72,0,0,0,.35,2.39A4,4,0,0,0,155.86,14a2.42,2.42,0,0,0,1.73.68A2.31,2.31,0,0,0,159.74,13.52Z"/><path class="cls-1" d="M164,14.6a1.07,1.07,0,0,0,.83-.29,1.42,1.42,0,0,0,.3-.74c0-.3.05-.77.05-1.41l0-6.1-1.64,0V5.2h1.64V4.78A6.19,6.19,0,0,1,166,1.23,3.09,3.09,0,0,1,168.73,0a3,3,0,0,1,1.45.38,1.19,1.19,0,0,1,.69,1.1.94.94,0,0,1-.23.65.82.82,0,0,1-.63.25.72.72,0,0,1-.61-.27.88.88,0,0,1-.21-.55,1.15,1.15,0,0,1,.1-.5.94.94,0,0,0-.38-.25,1.36,1.36,0,0,0-.48-.09,1.26,1.26,0,0,0-1.22.69,3.61,3.61,0,0,0-.36,1.69V5.2h2.7V6l-2.7.06,0,7a9,9,0,0,1-.08,1.36l1.26-.06v.82H164Z"/><path class="cls-1" d="M170.69,8.1h7.1V9.42l-7.1.08Z"/><path class="cls-1" d="M180.85,11.84l0-5.8-1.54,0V5.2A2.06,2.06,0,0,0,181,4.33a6,6,0,0,0,1-1.93h.68V5.2H186V6l-3.36,0c0,2,0,3.45,0,4.24s0,1.23,0,1.32a4.93,4.93,0,0,0,.34,2.11,1.2,1.2,0,0,0,1.18.69,2,2,0,0,0,1-.32,3.1,3.1,0,0,0,.89-.88l.54.44a4.42,4.42,0,0,1-1.54,1.53,3.34,3.34,0,0,1-1.48.37Q180.83,15.52,180.85,11.84Z"/><path class="cls-1" d="M187.15,14.6a1.11,1.11,0,0,0,.84-.29,1.35,1.35,0,0,0,.31-.75c0-.31,0-.77,0-1.4V2.7a12,12,0,0,1,.06-1.3L187,1.48V.64A7.44,7.44,0,0,0,188.7.5a1.89,1.89,0,0,0,.79-.4h.58V6.2a6.09,6.09,0,0,1,1.58-1,4.28,4.28,0,0,1,1.7-.37A2.88,2.88,0,0,1,195.85,6a6,6,0,0,1,.8,3.4l0,3.72a9,9,0,0,1-.08,1.36l1.26-.06v.82h-4.08v-.6a1.07,1.07,0,0,0,.83-.29,1.42,1.42,0,0,0,.3-.74c0-.3,0-.77,0-1.41V9.36a4.87,4.87,0,0,0-.54-2.57,1.86,1.86,0,0,0-1.7-.85,3.37,3.37,0,0,0-1.47.35,3.24,3.24,0,0,0-1.17.89v5.9a8.91,8.91,0,0,1-.1,1.36l1.26-.06v.82h-4.08Z"/><path class="cls-1" d="M201.48,14.87A4.5,4.5,0,0,1,199.73,13a5.86,5.86,0,0,1-.64-2.79,5.59,5.59,0,0,1,.64-2.63,5,5,0,0,1,1.79-2,4.71,4.71,0,0,1,2.61-.74,4.3,4.3,0,0,1,2.06.5,3.62,3.62,0,0,1,1.46,1.49,5,5,0,0,1,.54,2.43l-7,.12a7.05,7.05,0,0,0,.79,3.74,2.73,2.73,0,0,0,2.51,1.34,4.27,4.27,0,0,0,1.89-.48,4.09,4.09,0,0,0,1.49-1.18l.48.4a4.72,4.72,0,0,1-2,1.72,5.69,5.69,0,0,1-2.37.56A4.87,4.87,0,0,1,201.48,14.87Zm4.83-6.29a3.79,3.79,0,0,0-.54-2.06,1.79,1.79,0,0,0-1.62-.86c-1.66,0-2.64,1-2.94,2.92Z"/><path class="cls-1" d="M210.23,8.1h7.1V9.42l-7.1.08Z"/><path class="cls-1" d="M220,4.76,219.69,4c-.32-1-.52-1.65-.58-1.94l-1.12,0V1.2h4.86v.66a2.42,2.42,0,0,0-1.16.27.82.82,0,0,0-.34.75,4,4,0,0,0,.2,1.16q.36,1.34,1,3c.06.2.14.44.24.71l.32.95c.08.28.18.59.3.92s.2.57.26.72c.26.72.46,1.29.6,1.72h0c.26-.91.54-1.79.82-2.64.48-1.55,1-3.18,1.58-4.9s1-2.92,1.08-3.36h.64c.16.55.43,1.4.82,2.57s.66,2,.84,2.53c.4,1.15.67,2,.82,2.44s.28.9.52,1.62.48,1.43.64,2h.06c.32-1,.59-1.9.82-2.58q1-2.9,1.66-5c.14-.49.28-.91.4-1.24A11.65,11.65,0,0,1,235.59,2l-1.6.06V1.2h4.06v.66a2.64,2.64,0,0,0-1.09.3,1.84,1.84,0,0,0-.66.79,13.78,13.78,0,0,0-.73,1.87l-1,3q-1.61,4.86-2.58,7.54h-.6L227.63,4.7l-3.52,10.7h-.58Z"/><path class="cls-1" d="M240.08,14.87a4.72,4.72,0,0,1-1.82-1.81,5.11,5.11,0,0,1-.67-2.62,6.05,6.05,0,0,1,.66-2.83,5.08,5.08,0,0,1,1.81-2,4.6,4.6,0,0,1,2.55-.73A5,5,0,0,1,247,7.38a5.11,5.11,0,0,1,.67,2.58,6,6,0,0,1-.67,2.8,5.32,5.32,0,0,1-1.82,2,4.66,4.66,0,0,1-2.55.74A5.07,5.07,0,0,1,240.08,14.87Zm4.84-1.35a5.89,5.89,0,0,0,.69-3,7.4,7.4,0,0,0-.75-3.46,2.41,2.41,0,0,0-2.25-1.44,2.45,2.45,0,0,0-2.23,1.22,5.61,5.61,0,0,0-.75,3,7.72,7.72,0,0,0,.35,2.39A4,4,0,0,0,241,14a2.42,2.42,0,0,0,1.73.68A2.31,2.31,0,0,0,244.92,13.52Z"/><path class="cls-1" d="M251.58,14.87a4.72,4.72,0,0,1-1.82-1.81,5.11,5.11,0,0,1-.67-2.62,6.05,6.05,0,0,1,.66-2.83,5.08,5.08,0,0,1,1.81-2,4.6,4.6,0,0,1,2.55-.73,5,5,0,0,1,4.37,2.5,5.11,5.11,0,0,1,.67,2.58,6,6,0,0,1-.67,2.8,5.32,5.32,0,0,1-1.82,2,4.66,4.66,0,0,1-2.55.74A5.07,5.07,0,0,1,251.58,14.87Zm4.84-1.35a5.89,5.89,0,0,0,.69-3,7.4,7.4,0,0,0-.75-3.46,2.41,2.41,0,0,0-2.25-1.44,2.45,2.45,0,0,0-2.23,1.22,5.61,5.61,0,0,0-.75,3,7.72,7.72,0,0,0,.35,2.39A4,4,0,0,0,252.54,14a2.42,2.42,0,0,0,1.73.68A2.31,2.31,0,0,0,256.42,13.52Z"/><path class="cls-1" d="M262.71,14.9a4.14,4.14,0,0,1-1.54-1.76,5.89,5.89,0,0,1-.56-2.66,6.17,6.17,0,0,1,.66-2.88,4.9,4.9,0,0,1,4.48-2.72,5.23,5.23,0,0,1,1.27.17,4.84,4.84,0,0,1,1.07.39V2.7a12,12,0,0,1,.06-1.3l-1.42.08V.64A7.36,7.36,0,0,0,268.42.5a1.89,1.89,0,0,0,.79-.4h.58v13a13.17,13.17,0,0,1-.08,1.36l1.42-.08v.84h-2.86a8.06,8.06,0,0,1-.14-1,4.07,4.07,0,0,1-1.41,1,4.47,4.47,0,0,1-1.79.36A4.08,4.08,0,0,1,262.71,14.9Zm4.25-.73a3.84,3.84,0,0,0,1.13-.95c0-.21,0-.58,0-1.1l0-5.76a3.61,3.61,0,0,0-2.22-.7,2.75,2.75,0,0,0-2.32,1.19,5.14,5.14,0,0,0-.88,3.15,6.14,6.14,0,0,0,.78,3.29,2.46,2.46,0,0,0,2.2,1.25A2.69,2.69,0,0,0,267,14.17Z"/><path class="cls-1" d="M274.79,15.27a5.38,5.38,0,0,1-1.34-.63l.08.7h-.84l-.12-3.44h.62a2.79,2.79,0,0,0,.45,1.46,2.91,2.91,0,0,0,1.08,1,2.85,2.85,0,0,0,1.43.37,2.92,2.92,0,0,0,1.53-.41,1.3,1.3,0,0,0,.67-1.17,1.38,1.38,0,0,0-.33-.94,2.89,2.89,0,0,0-.82-.63c-.33-.17-.79-.36-1.37-.59a14.13,14.13,0,0,1-1.7-.75A3.34,3.34,0,0,1,273,9.3a2.41,2.41,0,0,1-.46-1.52,2.91,2.91,0,0,1,.32-1.32A2.69,2.69,0,0,1,274,5.34a3.83,3.83,0,0,1,2-.46,4.47,4.47,0,0,1,1.27.2,3.51,3.51,0,0,1,1.21.66l0-.76h.84v3.5h-.64a3.57,3.57,0,0,0-.71-2,2.18,2.18,0,0,0-1.83-.85,2.13,2.13,0,0,0-1.43.45,1.35,1.35,0,0,0-.53,1.07,1.4,1.4,0,0,0,.35,1,3,3,0,0,0,.87.68,11.92,11.92,0,0,0,1.4.62,15.47,15.47,0,0,1,1.68.78,3.67,3.67,0,0,1,1.09,1,2.28,2.28,0,0,1,.45,1.43,2.69,2.69,0,0,1-.49,1.62,3.06,3.06,0,0,1-1.28,1,4.35,4.35,0,0,1-1.69.33A5.5,5.5,0,0,1,274.79,15.27Z"/><path class="cls-1" d="M44.23,35.28a1.58,1.58,0,0,0,.57-.1.57.57,0,0,0,.31-.32,2,2,0,0,0,.11-.8V28.7a10.35,10.35,0,0,1,.06-1.26l-1.05,0V26.4h4v.92a1.59,1.59,0,0,0-.58.1.61.61,0,0,0-.31.32,2.24,2.24,0,0,0-.11.8v2.19H51.1v-2a8.32,8.32,0,0,1,.06-1.26l-1,0V26.4h4v.92a1.59,1.59,0,0,0-.58.1.61.61,0,0,0-.31.32,2.24,2.24,0,0,0-.11.8V33.9c0,.53,0,1-.05,1.26.3,0,.65,0,1.05,0V36.2h-4v-.92a1.58,1.58,0,0,0,.57-.1.57.57,0,0,0,.31-.32,2.24,2.24,0,0,0,.11-.8V31.79l-3.85,0V33.9c0,.53,0,1,0,1.26.3,0,.64,0,1,0V36.2h-4Z"/><path class="cls-1" d="M56.23,35.28a1.58,1.58,0,0,0,.57-.1.61.61,0,0,0,.31-.32,2.24,2.24,0,0,0,.11-.8V28.7a10.35,10.35,0,0,1,.06-1.26l-1.05,0V26.4h4v.92a1.58,1.58,0,0,0-.57.1.61.61,0,0,0-.31.32,2.24,2.24,0,0,0-.11.8V33.9a10.35,10.35,0,0,1-.06,1.26c.3,0,.65,0,1.05,0V36.2h-4Z"/><path class="cls-1" d="M64.72,36.24a5,5,0,0,1-1.2-.5h0l0,.59H62.47V33.05h.92a2.86,2.86,0,0,0,.89,1.76,2.51,2.51,0,0,0,1.7.61A1.85,1.85,0,0,0,67.19,35a1.15,1.15,0,0,0,.47-.93,1,1,0,0,0-.31-.77,2.43,2.43,0,0,0-.7-.5c-.26-.12-.67-.3-1.23-.52a7.5,7.5,0,0,1-2.36-1.4,2.73,2.73,0,0,1-.81-2.06,2.56,2.56,0,0,1,.32-1.25,2.49,2.49,0,0,1,1.06-1,3.9,3.9,0,0,1,1.89-.4,4.76,4.76,0,0,1,1.26.17,3.14,3.14,0,0,1,1.09.5h0l-.06-.58h1.09v3.27H68a3,3,0,0,0-.81-1.75,2.14,2.14,0,0,0-1.58-.61,1.76,1.76,0,0,0-1.09.35,1,1,0,0,0-.45.86,1.28,1.28,0,0,0,.51,1,7.63,7.63,0,0,0,1.75.93,8.48,8.48,0,0,1,2.31,1.29,2.42,2.42,0,0,1,.89,2,2.51,2.51,0,0,1-.45,1.47,3,3,0,0,1-1.26,1,4.78,4.78,0,0,1-1.88.35A4.56,4.56,0,0,1,64.72,36.24Z"/><path class="cls-1" d="M73.24,35.28a1.58,1.58,0,0,0,.57-.1.61.61,0,0,0,.31-.32,2.24,2.24,0,0,0,.11-.8V27.35h-.64a1.62,1.62,0,0,0-1.28.56,2.58,2.58,0,0,0-.45,1.65h-.92L71,26.4h8.48l.09,3.16h-.93a2.66,2.66,0,0,0-.45-1.67,1.49,1.49,0,0,0-1.27-.55h-.67V33.9a8.32,8.32,0,0,1-.06,1.26c.31,0,.68,0,1.12,0V36.2H73.24Z"/><path class="cls-1" d="M83.11,35.68a4.39,4.39,0,0,1-1.6-1.9A6.11,6.11,0,0,1,81,31.3a5.46,5.46,0,0,1,.56-2.42,4.8,4.8,0,0,1,1.67-1.94,4.76,4.76,0,0,1,7,1.94,5.87,5.87,0,0,1,.53,2.42,5.47,5.47,0,0,1-.56,2.4,4.83,4.83,0,0,1-1.67,1.95,4.55,4.55,0,0,1-2.68.77A4.76,4.76,0,0,1,83.11,35.68Zm4.39-.85a3.33,3.33,0,0,0,.83-1.46,6.57,6.57,0,0,0,.25-1.83,6.16,6.16,0,0,0-.7-3.17,2.27,2.27,0,0,0-2.07-1.17,2,2,0,0,0-1.51.59,3.15,3.15,0,0,0-.84,1.48,6.79,6.79,0,0,0-.26,1.86,7.31,7.31,0,0,0,.28,2,4,4,0,0,0,.92,1.65A2.16,2.16,0,0,0,86,35.4,2,2,0,0,0,87.5,34.83Z"/><path class="cls-1" d="M92.51,35.28a1.59,1.59,0,0,0,.58-.1.61.61,0,0,0,.31-.32,2.24,2.24,0,0,0,.11-.8V28.7c0-.53,0-.95,0-1.26l-1,0V26.4l4,0a5.34,5.34,0,0,1,3,.67,2.46,2.46,0,0,1,1,2.23A2.6,2.6,0,0,1,99.87,31,3.63,3.63,0,0,1,98,32.08v0a1.65,1.65,0,0,1,.52.34A2.58,2.58,0,0,1,99,33l.65,1a5.24,5.24,0,0,0,.79,1,1.18,1.18,0,0,0,.78.3v.92H98.91a2,2,0,0,1-.47-.48,9.53,9.53,0,0,1-.55-.84l-1-1.68a6.29,6.29,0,0,0-.58-.81h-.73v1.5a10.54,10.54,0,0,1-.06,1.27c.3,0,.7,0,1.19,0V36.2H92.51Zm5.36-4.41a2.18,2.18,0,0,0,.51-1.6,1.71,1.71,0,0,0-.59-1.54,2.44,2.44,0,0,0-1.31-.38,1,1,0,0,0-.72.21,1.27,1.27,0,0,0-.22.9v2.87a4.68,4.68,0,0,0,.67.05A2.27,2.27,0,0,0,97.87,30.87Z"/><path class="cls-1" d="M102.82,35.28a1.58,1.58,0,0,0,.57-.1.57.57,0,0,0,.31-.32,2.24,2.24,0,0,0,.11-.8V28.7a10.35,10.35,0,0,1,.06-1.26l-1.05,0V26.4h4v.92a1.59,1.59,0,0,0-.58.1.61.61,0,0,0-.31.32,2.24,2.24,0,0,0-.11.8V33.9c0,.53,0,1,0,1.26.29,0,.64,0,1,0V36.2h-4Z"/><path class="cls-1" d="M110.85,35.77a4.58,4.58,0,0,1-1.69-1.8,5.37,5.37,0,0,1-.6-2.53,5.89,5.89,0,0,1,.57-2.54,4.76,4.76,0,0,1,1.67-2,4.77,4.77,0,0,1,3.87-.57,5.33,5.33,0,0,1,1.2.5h0l-.06-.59h1.08v3.27H116c-.25-1.55-1-2.34-2.35-2.36a2.36,2.36,0,0,0-1.59.56,3.3,3.3,0,0,0-1,1.46,5.72,5.72,0,0,0-.32,2,5.93,5.93,0,0,0,.35,2.14,3.23,3.23,0,0,0,1,1.46,2.42,2.42,0,0,0,1.59.53,3.63,3.63,0,0,0,1.75-.46,4.29,4.29,0,0,0,1.45-1.26l.67.61a5,5,0,0,1-2,1.76,5.41,5.41,0,0,1-2.18.48A4.86,4.86,0,0,1,110.85,35.77Z"/><path class="cls-1" d="M123.48,35.28a1.68,1.68,0,0,0,.58-.1.56.56,0,0,0,.3-.32,2,2,0,0,0,.12-.8V28.7a10.71,10.71,0,0,1,0-1.26l-1,0V26.4h4.08a5.92,5.92,0,0,1,3,.69,4.52,4.52,0,0,1,1.8,1.8,4.8,4.8,0,0,1,.6,2.32,5.31,5.31,0,0,1-.57,2.38,4.6,4.6,0,0,1-1.79,1.88,5.89,5.89,0,0,1-3.07.74h-4Zm5.94-.62a3.09,3.09,0,0,0,1-1.35,5.1,5.1,0,0,0,.32-1.81,4.78,4.78,0,0,0-.87-3.15,3.06,3.06,0,0,0-2.45-1,.84.84,0,0,0-.68.24,1.53,1.53,0,0,0-.2,1V33.9a10.35,10.35,0,0,1-.06,1.26h.87l.46,0A2.61,2.61,0,0,0,129.42,34.66Z"/><path class="cls-1" d="M134.61,35.28a1.68,1.68,0,0,0,.58-.1.56.56,0,0,0,.3-.32,2,2,0,0,0,.11-.8V28.7a10.35,10.35,0,0,1,.06-1.26l-1,0V26.4h4v.92a1.58,1.58,0,0,0-.57.1.54.54,0,0,0-.31.32,2,2,0,0,0-.11.8V33.9a10.35,10.35,0,0,1-.06,1.26c.3,0,.65,0,1,0V36.2h-4Z"/><path class="cls-1" d="M143.1,36.24a5.06,5.06,0,0,1-1.19-.5h0l0,.59h-1.07V33.05h.92a2.8,2.8,0,0,0,.88,1.76,2.56,2.56,0,0,0,1.71.61,1.82,1.82,0,0,0,1.2-.39,1.17,1.17,0,0,0,.48-.93,1.06,1.06,0,0,0-.32-.77,2.43,2.43,0,0,0-.7-.5c-.25-.12-.66-.3-1.22-.52a7.39,7.39,0,0,1-2.36-1.4,2.7,2.7,0,0,1-.82-2.06A2.67,2.67,0,0,1,141,27.6a2.55,2.55,0,0,1,1.06-1,3.91,3.91,0,0,1,1.9-.4,4.76,4.76,0,0,1,1.26.17,3.14,3.14,0,0,1,1.09.5h0l-.05-.58h1.09v3.27h-.92a3,3,0,0,0-.81-1.75,2.15,2.15,0,0,0-1.59-.61,1.73,1.73,0,0,0-1.08.35,1,1,0,0,0-.46.86,1.26,1.26,0,0,0,.52,1,7.41,7.41,0,0,0,1.75.93,8.41,8.41,0,0,1,2.3,1.29,2.42,2.42,0,0,1,.89,2,2.51,2.51,0,0,1-.45,1.47,3,3,0,0,1-1.26,1,4.73,4.73,0,0,1-1.87.35A4.63,4.63,0,0,1,143.1,36.24Z"/><path class="cls-1" d="M151.62,35.28a1.68,1.68,0,0,0,.58-.1.56.56,0,0,0,.3-.32,2,2,0,0,0,.12-.8V27.35H152a1.6,1.6,0,0,0-1.27.56,2.58,2.58,0,0,0-.45,1.65h-.92l.07-3.16h8.48l.08,3.16H157a2.6,2.6,0,0,0-.46-1.67,1.47,1.47,0,0,0-1.26-.55h-.67V33.9a8.32,8.32,0,0,1-.06,1.26c.31,0,.68,0,1.12,0V36.2h-4.09Z"/><path class="cls-1" d="M159.6,35.28a1.58,1.58,0,0,0,.57-.1.54.54,0,0,0,.31-.32,2,2,0,0,0,.11-.8V28.7a10.35,10.35,0,0,1,.06-1.26l-1.05,0V26.4l4,0a5.36,5.36,0,0,1,3,.67,2.48,2.48,0,0,1,1,2.23A2.65,2.65,0,0,1,167,31a3.67,3.67,0,0,1-1.84,1.09v0a1.62,1.62,0,0,1,.51.34,2.31,2.31,0,0,1,.45.54l.66,1a5.24,5.24,0,0,0,.79,1,1.18,1.18,0,0,0,.78.3v.92H166a2.17,2.17,0,0,1-.48-.48,7.82,7.82,0,0,1-.54-.84l-1-1.68a5.36,5.36,0,0,0-.59-.81h-.72v1.5a10.54,10.54,0,0,1-.06,1.27c.3,0,.69,0,1.19,0V36.2H159.6ZM165,30.87a2.18,2.18,0,0,0,.51-1.6,1.69,1.69,0,0,0-.6-1.54,2.39,2.39,0,0,0-1.31-.38,1,1,0,0,0-.71.21,1.27,1.27,0,0,0-.22.9v2.87a4.58,4.58,0,0,0,.67.05A2.29,2.29,0,0,0,165,30.87Z"/><path class="cls-1" d="M169.91,35.28a1.58,1.58,0,0,0,.57-.1.61.61,0,0,0,.31-.32,2.24,2.24,0,0,0,.11-.8V28.7a10.35,10.35,0,0,1,.06-1.26l-1.05,0V26.4h4v.92a1.58,1.58,0,0,0-.57.1.61.61,0,0,0-.31.32,2.24,2.24,0,0,0-.11.8V33.9a10.35,10.35,0,0,1-.06,1.26c.3,0,.65,0,1,0V36.2h-4Z"/><path class="cls-1" d="M177.94,35.77a4.51,4.51,0,0,1-1.69-1.8,5.37,5.37,0,0,1-.6-2.53,5.88,5.88,0,0,1,.56-2.54,4.91,4.91,0,0,1,1.67-2,4.79,4.79,0,0,1,3.88-.57,5.06,5.06,0,0,1,1.19.5h0l-.06-.59H184v3.27h-.91c-.25-1.55-1-2.34-2.35-2.36a2.36,2.36,0,0,0-1.59.56,3.31,3.31,0,0,0-1,1.46,6,6,0,0,0-.32,2,6.16,6.16,0,0,0,.35,2.14,3.24,3.24,0,0,0,1,1.46,2.41,2.41,0,0,0,1.58.53,3.64,3.64,0,0,0,1.76-.46A4.38,4.38,0,0,0,184,33.57l.67.61a5.09,5.09,0,0,1-2,1.76,5.44,5.44,0,0,1-2.18.48A4.84,4.84,0,0,1,177.94,35.77Z"/><path class="cls-1" d="M188,35.28a1.58,1.58,0,0,0,.57-.1.61.61,0,0,0,.31-.32,2.24,2.24,0,0,0,.11-.8V27.35h-.64a1.62,1.62,0,0,0-1.28.56,2.58,2.58,0,0,0-.45,1.65h-.92l.07-3.16h8.48l.09,3.16h-.93a2.66,2.66,0,0,0-.45-1.67,1.49,1.49,0,0,0-1.27-.55H191V33.9a8.32,8.32,0,0,1-.06,1.26c.31,0,.69,0,1.12,0V36.2H188Z"/><path class="cls-2" d="M12.59,22.9l-.15-.15m.15-8-.15.15m8.12,0-.15-.15m.15,8-.15.15"/><path class="cls-1" d="M33,18.83a7.64,7.64,0,0,0-6.27-7.51l3.19-3.19L27.45,5.67,24.08,9A7.64,7.64,0,0,0,8.92,9L5.55,5.67,3.08,8.13l3.19,3.19a7.63,7.63,0,0,0,.44,15.09L3.08,30,5.55,32.5,9,29.06a7.63,7.63,0,0,0,15,0l3.44,3.44L29.92,30l-3.63-3.63A7.65,7.65,0,0,0,33,18.83ZM10.08,23.92a4.69,4.69,0,0,1-1.31.43,5.29,5.29,0,0,1-1.13.12,5.64,5.64,0,0,1,0-11.28,4.58,4.58,0,0,1,.53,0,5.38,5.38,0,0,1,1.91.53l.51.25a7.62,7.62,0,0,0,0,9.67Zm6.42,9.41a5.65,5.65,0,0,1-5.64-5.64,4.58,4.58,0,0,1,0-.53,5.32,5.32,0,0,1,.53-1.9l.25-.51a7.61,7.61,0,0,0,9.66,0l.25.51a5.32,5.32,0,0,1,.53,1.9,4.58,4.58,0,0,1,0,.53A5.65,5.65,0,0,1,16.5,33.33Zm4.06-10.58-.15.15a5.63,5.63,0,0,1-7.82,0l-.15-.15a5.64,5.64,0,0,1,0-7.83l.15-.15a5.63,5.63,0,0,1,7.82,0l.15.15a5.64,5.64,0,0,1,0,7.83ZM22,11.1a4.71,4.71,0,0,1-.44,1.31l-.25.51a7.61,7.61,0,0,0-9.66,0l-.25-.51A4.71,4.71,0,0,1,11,11.1,5.22,5.22,0,0,1,10.86,10a5.64,5.64,0,1,1,11.28,0A5.22,5.22,0,0,1,22,11.1Zm3.34,13.37a5.29,5.29,0,0,1-1.13-.12,4.69,4.69,0,0,1-1.31-.43l-.51-.25a7.62,7.62,0,0,0,0-9.67l.51-.25a5.38,5.38,0,0,1,1.91-.53,4.58,4.58,0,0,1,.53,0,5.64,5.64,0,1,1,0,11.28Z"/><circle class="cls-1" cx="16.5" cy="18.83" r="3.5"/></g></g></svg>